<?xml version="1.0" encoding="UTF-8"?>
<svg enable-background="new 0 0 120.9 177.7" version="1.1" viewBox="0 0 120.9 177.7" xmlns="http://www.w3.org/2000/svg">
 <style type="text/css">.st0{fill:#4D4D4D;} .st1{fill:#333333;} .st2{fill:#0275D8;} .st3{fill:#FFFFFF;} .st4{fill:#7986CB;} .st5{fill:#424242;} .st6{fill:#FF8F00;} .st7{fill:#CCCCCC;} .st8{fill:#FF7043;} .st9{fill:#2196F3;}</style>
 <path class="st0" d="m49.4 140.7h22.2v34.8c-7-0.4-14.2 0.7-22.2 0v-34.8z"/>
 <path class="st1" d="M49.4,140.7h22.2V159c-7-0.2-14.2,0.4-22.2,0V140.7z"/>
 <rect class="st2" x="4.2" y="2.2" width="112.4" height="147.1"/>
 <rect class="st3" x="16" y="2.2" width="88.8" height="147.1"/>
 <g transform="translate(-1.4374 .30535)">
  <circle class="st4" cx="103.3" cy="6.3" r="1.5"/>
  <circle class="st4" cx="99" cy="6.3" r="1.5"/>
  <circle class="st4" cx="94.7" cy="6.3" r="1.5"/>
 </g>
 <path class="st0" d="M0,154.7h120.9V0H0V154.7z M6.3,147.1V6.5h107.9v140.9L6.3,147.1z"/>
 <path class="st5" d="m26.5 177.7h68c0.4 0 0.8-0.1 0.7-0.2l-3.3-3c-0.1-0.1-1.5-0.2-1.9-0.2h-58.9c-0.4 0-1.8 0.1-1.9 0.2l-3.3 3c-0.2 0.1 0.2 0.2 0.6 0.2z"/>
 <rect class="st6" x="21.3" y="11.6" width="45.6" height="3.6"/>
 <rect class="st2" x="23.8" y="25.7" width="9.9" height="2.1"/>
 <path class="st2" d="m23.8 27.7c-0.1 0.1-0.7-0.4-0.7-0.4-0.1-0.1-0.6-0.5-0.6-0.6s0.6-0.6 0.6-0.6c0.1-0.1 0.6-0.5 0.7-0.4s0.1 0.9 0.1 1 0 1-0.1 1z"/>
 <path class="st2" d="m33.7 27.7c0.1 0.1 0.7-0.4 0.7-0.4 0.1-0.1 0.6-0.5 0.6-0.6s-0.6-0.6-0.6-0.6c-0.1-0.1-0.6-0.5-0.7-0.4s-0.1 0.9-0.1 1 0 1 0.1 1z"/>
 <rect class="st2" x="29.3" y="29.6" width="9.9" height="2.1"/>
 <path class="st2" d="m29.4 31.7c-0.1 0.1-0.7-0.4-0.7-0.4-0.1-0.1-0.6-0.5-0.6-0.6s0.6-0.6 0.6-0.6c0.1-0.1 0.6-0.5 0.7-0.4s0.1 0.9 0.1 1c-0.1 0.1-0.1 1-0.1 1z"/>
 <path class="st2" d="m39.2 31.7c0.1 0.1 0.7-0.4 0.7-0.4 0.1-0.1 0.6-0.5 0.6-0.6s-0.6-0.6-0.6-0.6c-0.1-0.1-0.6-0.5-0.7-0.4s-0.1 0.9-0.1 1 0.1 1 0.1 1z"/>
 <rect class="st2" x="33.6" y="33.4" width="9.9" height="2.1"/>
 <path class="st2" d="m33.6 35.5c-0.1 0.1-0.7-0.4-0.7-0.4-0.1-0.1-0.6-0.5-0.6-0.6s0.6-0.6 0.6-0.6c0.1-0.1 0.6-0.5 0.7-0.4s0.1 0.9 0.1 1 0 0.9-0.1 1z"/>
 <path class="st2" d="m43.5 35.5c0.1 0.1 0.7-0.4 0.7-0.4 0.1-0.1 0.6-0.5 0.6-0.6s-0.6-0.6-0.6-0.6c-0.1-0.1-0.6-0.5-0.7-0.4s-0.1 0.9-0.1 1 0.1 0.9 0.1 1z"/>
 <rect class="st2" x="33.7" y="37.3" width="9.9" height="2.1"/>
 <path class="st2" d="m33.7 39.4c-0.1 0.1-0.7-0.4-0.7-0.4-0.1-0.1-0.6-0.5-0.6-0.6s0.6-0.6 0.6-0.6c0.1-0.1 0.6-0.5 0.7-0.4s0.1 0.9 0.1 1 0 0.9-0.1 1z"/>
 <path class="st2" d="m43.6 39.4c0.1 0.1 0.7-0.4 0.7-0.4 0.1-0.1 0.6-0.5 0.6-0.6s-0.6-0.6-0.6-0.6c-0.1-0.1-0.6-0.5-0.7-0.4s-0.1 0.9-0.1 1 0.1 0.9 0.1 1z"/>
 <rect class="st2" x="33.8" y="41.1" width="9.9" height="2.1"/>
 <path class="st2" d="m33.8 43.1c-0.1 0.1-0.7-0.4-0.7-0.4-0.1-0.1-0.6-0.5-0.6-0.6s0.6-0.6 0.6-0.6c0.1-0.1 0.6-0.5 0.7-0.4s0.1 0.9 0.1 1 0 1-0.1 1z"/>
 <path class="st2" d="m43.7 43.1c0.1 0.1 0.7-0.4 0.7-0.4 0.1-0.1 0.6-0.5 0.6-0.6s-0.6-0.6-0.6-0.6c-0.1-0.1-0.6-0.5-0.7-0.4s-0.1 0.9-0.1 1 0.1 1 0.1 1z"/>
 <rect class="st2" x="33.8" y="45" width="9.9" height="2.1"/>
 <path class="st2" d="m33.8 47c-0.1 0.1-0.7-0.4-0.7-0.4-0.1-0.1-0.6-0.5-0.6-0.6s0.6-0.6 0.6-0.6c0.1-0.1 0.6-0.5 0.7-0.4s0.1 0.9 0.1 1 0 1-0.1 1z"/>
 <path class="st2" d="m43.7 47c0.1 0.1 0.7-0.4 0.7-0.4 0.1-0.1 0.6-0.5 0.6-0.6s-0.6-0.6-0.6-0.6c-0.1-0.1-0.6-0.5-0.7-0.4s-0.1 0.9-0.1 1 0.1 1 0.1 1z"/>
 <rect class="st2" x="33.8" y="58.7" width="9.9" height="2.1"/>
 <path class="st2" d="m33.8 60.7c-0.1 0.1-0.7-0.4-0.7-0.4-0.1-0.1-0.6-0.5-0.6-0.6s0.6-0.6 0.6-0.6c0.1-0.1 0.6-0.5 0.7-0.4s0.1 0.9 0.1 1 0 1-0.1 1z"/>
 <path class="st2" d="m43.7 60.7c0.1 0.1 0.7-0.4 0.7-0.4 0.1-0.1 0.6-0.5 0.6-0.6s-0.6-0.6-0.6-0.6c-0.1-0.1-0.6-0.5-0.7-0.4s-0.1 0.9-0.1 1 0.1 1 0.1 1z"/>
 <rect class="st2" x="34.2" y="62.5" width="9.9" height="2.1"/>
 <path class="st2" d="m34.3 64.6c-0.1 0.1-0.7-0.4-0.7-0.4-0.1-0.1-0.6-0.5-0.6-0.6s0.6-0.6 0.6-0.6c0.1-0.1 0.6-0.5 0.7-0.4s0.1 0.9 0.1 1c-0.1 0.1-0.1 0.9-0.1 1z"/>
 <path class="st2" d="m44.1 64.6c0.1 0.1 0.7-0.4 0.7-0.4 0.1-0.1 0.6-0.5 0.6-0.6s-0.6-0.6-0.6-0.6c-0.1-0.1-0.6-0.5-0.7-0.4s-0.1 0.9-0.1 1 0.1 0.9 0.1 1z"/>
 <rect class="st2" x="29.3" y="66.8" width="9.9" height="2.1"/>
 <path class="st2" d="m29.4 68.9c-0.1 0.1-0.7-0.4-0.7-0.4-0.1-0.1-0.6-0.5-0.6-0.6s0.6-0.6 0.6-0.6c0.1-0.1 0.6-0.5 0.7-0.4s0.1 0.9 0.1 1c-0.1 0.1-0.1 0.9-0.1 1z"/>
 <path class="st2" d="m39.2 68.9c0.1 0.1 0.7-0.4 0.7-0.4 0.1-0.1 0.6-0.5 0.6-0.6s-0.6-0.6-0.6-0.6c-0.1-0.1-0.6-0.5-0.7-0.4s-0.1 0.9-0.1 1 0.1 0.9 0.1 1z"/>
 <rect class="st2" x="29.3" y="71.9" width="9.9" height="2.1"/>
 <path class="st2" d="m29.4 74c-0.1 0.1-0.7-0.4-0.7-0.4-0.1-0.1-0.6-0.5-0.6-0.6s0.6-0.6 0.6-0.6c0.1-0.1 0.6-0.5 0.7-0.4s0.1 0.9 0.1 1c-0.1 0.1-0.1 0.9-0.1 1z"/>
 <path class="st2" d="m39.2 74c0.1 0.1 0.7-0.4 0.7-0.4 0.1-0.1 0.6-0.5 0.6-0.6s-0.6-0.6-0.6-0.6c-0.1-0.1-0.6-0.5-0.7-0.4s-0.1 0.9-0.1 1 0.1 0.9 0.1 1z"/>
 <rect class="st7" x="47.7" y="45" width="47.6" height="2.1"/>
 <path class="st7" d="m47.7 47c-0.1 0.1-0.7-0.4-0.7-0.4-0.1-0.1-0.6-0.5-0.6-0.6s0.6-0.6 0.6-0.6c0.1-0.1 0.6-0.5 0.7-0.4s0.1 0.9 0.1 1 0 1-0.1 1z"/>
 <path class="st7" d="m95.2 47c0.1 0.1 0.7-0.4 0.7-0.4 0.1-0.1 0.6-0.5 0.6-0.6s-0.6-0.6-0.6-0.6c-0.1-0.1-0.6-0.5-0.7-0.4s-0.1 0.9-0.1 1 0 1 0.1 1z"/>
 <rect class="st7" x="34" y="48.6" width="61.1" height="2.1"/>
 <path class="st7" d="m34.1 50.7c-0.1 0.1-0.9-0.4-0.9-0.4-0.1-0.1-0.8-0.5-0.8-0.6s0.7-0.6 0.8-0.6c0.1-0.1 0.8-0.5 0.9-0.4s0.1 0.9 0.1 1 0 0.9-0.1 1z"/>
 <path class="st7" d="m95 50.7c0.1 0.1 0.9-0.4 0.9-0.4 0.1-0.1 0.8-0.5 0.8-0.6s-0.7-0.6-0.8-0.6c-0.1-0.1-0.8-0.5-0.9-0.4s-0.1 0.9-0.1 1 0 0.9 0.1 1z"/>
 <rect class="st7" x="34" y="52.1" width="61.1" height="2.1"/>
 <path class="st7" d="m34.1 54.2c-0.1 0.1-0.9-0.4-0.9-0.4-0.1-0.1-0.8-0.5-0.8-0.6s0.7-0.6 0.8-0.6c0.1-0.1 0.8-0.5 0.9-0.4s0.1 0.9 0.1 1 0 0.9-0.1 1z"/>
 <path class="st7" d="m95 54.2c0.1 0.1 0.9-0.4 0.9-0.4 0.1-0.1 0.8-0.5 0.8-0.6s-0.7-0.6-0.8-0.6c-0.1-0.1-0.8-0.5-0.9-0.4s-0.1 0.9-0.1 1 0 0.9 0.1 1z"/>
 <rect class="st7" x="33.9" y="55.3" width="54.2" height="2.1"/>
 <path class="st7" d="m33.9 57.3c-0.1 0.1-0.8-0.4-0.8-0.4-0.1-0.1-0.7-0.5-0.7-0.6s0.6-0.6 0.7-0.6c0.1-0.1 0.7-0.5 0.8-0.4s0.1 0.9 0.1 1 0 1-0.1 1z"/>
 <path class="st7" d="m87.8 57.3c0.1 0.1 0.8-0.4 0.8-0.4 0.1-0.1 0.7-0.5 0.7-0.6s-0.6-0.6-0.7-0.6c-0.1-0.1-0.7-0.5-0.8-0.4s-0.1 0.9-0.1 1 0.1 1 0.1 1z"/>
 <rect class="st8" x="47.9" y="37.2" width="9.9" height="2.1"/>
 <path class="st8" d="m47.9 39.3c-0.1 0.1-0.7-0.4-0.7-0.4-0.1-0.1-0.6-0.5-0.6-0.6s0.6-0.6 0.6-0.6c0.1-0.1 0.6-0.5 0.7-0.4s0.1 0.9 0.1 1 0 0.9-0.1 1z"/>
 <path class="st8" d="m57.8 39.3c0.1 0.1 0.7-0.4 0.7-0.4 0.1-0.1 0.6-0.5 0.6-0.6s-0.6-0.6-0.6-0.6c-0.1-0.1-0.6-0.5-0.7-0.4s-0.1 0.9-0.1 1 0.1 0.9 0.1 1z"/>
 <rect class="st8" x="72.7" y="37.2" width="9.9" height="2.1"/>
 <path class="st8" d="m72.8 39.3c-0.1 0.1-0.7-0.4-0.7-0.4-0.1-0.1-0.6-0.5-0.6-0.6s0.6-0.6 0.6-0.6c0.1-0.1 0.6-0.5 0.7-0.4s0.1 0.9 0.1 1c-0.1 0.1-0.1 0.9-0.1 1z"/>
 <path class="st8" d="m82.6 39.3c0.1 0.1 0.7-0.4 0.7-0.4 0.1-0.1 0.6-0.5 0.6-0.6s-0.6-0.6-0.6-0.6c-0.1-0.1-0.6-0.5-0.7-0.4s-0.1 0.9-0.1 1 0.1 0.9 0.1 1z"/>
 <rect class="st2" x="86" y="37.2" width="9.9" height="2.1"/>
 <path class="st2" d="m86 39.3c-0.1 0.1-0.7-0.4-0.7-0.4-0.1-0.1-0.6-0.5-0.6-0.6s0.6-0.6 0.6-0.6c0.1-0.1 0.6-0.5 0.7-0.4s0.1 0.9 0.1 1 0 0.9-0.1 1z"/>
 <path class="st2" d="m95.9 39.3c0.1 0.1 0.7-0.4 0.7-0.4 0.1-0.1 0.6-0.5 0.6-0.6s-0.6-0.6-0.6-0.6c-0.1-0.1-0.6-0.5-0.7-0.4s-0.1 0.9-0.1 1 0 0.9 0.1 1z"/>
 <rect class="st7" x="61.3" y="37.2" width="8.3" height="2.1"/>
 <path class="st7" d="m61.3 39.3c-0.1 0.1-0.6-0.4-0.6-0.4-0.1-0.1-0.5-0.5-0.5-0.6s0.5-0.6 0.5-0.6c0.1-0.1 0.5-0.5 0.6-0.4s0.1 0.9 0.1 1 0 0.9-0.1 1z"/>
 <path class="st7" d="m69.6 39.3c0.1 0.1 0.6-0.4 0.6-0.4 0.1-0.1 0.5-0.5 0.5-0.6s-0.5-0.6-0.5-0.6c-0.1-0.1-0.5-0.5-0.6-0.4s-0.1 0.9-0.1 1 0 0.9 0.1 1z"/>
 <rect class="st8" x="43.3" y="66.8" width="16.3" height="2.1"/>
 <path class="st8" d="m43.3 68.9c-0.1 0.1-0.7-0.4-0.7-0.4-0.1-0.1-0.6-0.5-0.6-0.6s0.6-0.6 0.6-0.6c0.1-0.1 0.6-0.5 0.7-0.4s0.1 0.9 0.1 1 0 0.9-0.1 1z"/>
 <path class="st8" d="m59.6 68.9c0.1 0.1 0.7-0.4 0.7-0.4 0.1-0.1 0.6-0.5 0.6-0.6s-0.6-0.6-0.6-0.6c-0.1-0.1-0.6-0.5-0.7-0.4s-0.1 0.9-0.1 1 0 0.9 0.1 1z"/>
 <rect class="st8" x="43.5" y="71.7" width="16.3" height="2.1"/>
 <path class="st8" d="m43.5 73.8c-0.1 0.1-0.7-0.4-0.7-0.4-0.1-0.1-0.6-0.5-0.6-0.6s0.6-0.6 0.6-0.6c0.1-0.1 0.6-0.5 0.7-0.4s0.1 0.9 0.1 1 0 0.9-0.1 1z"/>
 <path class="st8" d="m59.7 73.8c0.1 0.1 0.7-0.4 0.7-0.4 0.1-0.1 0.6-0.5 0.6-0.6s-0.6-0.6-0.6-0.6c-0.1-0.1-0.6-0.5-0.7-0.4s-0.1 0.9-0.1 1 0 0.9 0.1 1z"/>
 <rect class="st2" x="34.2" y="76.5" width="9.9" height="2.1"/>
 <path class="st2" d="m34.3 78.6c-0.1 0.1-0.7-0.4-0.7-0.4-0.1-0.1-0.6-0.5-0.6-0.6s0.6-0.6 0.6-0.6c0.1-0.1 0.6-0.5 0.7-0.4s0.1 0.9 0.1 1c-0.1 0.1-0.1 0.9-0.1 1z"/>
 <path class="st2" d="m44.1 78.6c0.1 0.1 0.7-0.4 0.7-0.4 0.1-0.1 0.6-0.5 0.6-0.6s-0.6-0.6-0.6-0.6c-0.1-0.1-0.6-0.5-0.7-0.4s-0.1 0.9-0.1 1 0.1 0.9 0.1 1z"/>
 <rect class="st8" x="48.4" y="76.3" width="26.1" height="2.1"/>
 <path class="st8" d="m48.4 78.4c-0.1 0.1-0.7-0.4-0.7-0.4-0.1-0.1-0.6-0.5-0.6-0.6s0.6-0.6 0.6-0.6c0.1-0.1 0.6-0.5 0.7-0.4s0.1 0.9 0.1 1 0 0.9-0.1 1z"/>
 <path class="st8" d="m74.2 78.4c0.1 0.1 0.7-0.4 0.7-0.4 0.1-0.1 0.6-0.5 0.6-0.6s-0.6-0.6-0.6-0.6c-0.1-0.1-0.6-0.5-0.7-0.4s-0.1 0.9-0.1 1 0 0.9 0.1 1z"/>
 <rect class="st2" x="34.2" y="80.4" width="9.9" height="2.1"/>
 <path class="st2" d="m34.3 82.5c-0.1 0.1-0.7-0.4-0.7-0.4-0.1-0.1-0.6-0.5-0.6-0.6s0.6-0.6 0.6-0.6c0.1-0.1 0.6-0.5 0.7-0.4s0.1 0.9 0.1 1c-0.1 0.1-0.1 0.9-0.1 1z"/>
 <path class="st2" d="m44.1 82.5c0.1 0.1 0.7-0.4 0.7-0.4 0.1-0.1 0.6-0.5 0.6-0.6s-0.6-0.6-0.6-0.6c-0.1-0.1-0.6-0.5-0.7-0.4s-0.1 0.9-0.1 1 0.1 0.9 0.1 1z"/>
 <rect class="st6" x="21.3" y="16.8" width="37.3" height="1.1"/>
 <rect class="st9" x="16" y="20.6" width="88.8" height=".8"/>
 <rect class="st7" x="63.5" y="66.7" width="26.1" height="2.1"/>
 <path class="st7" d="m63.5 68.8c-0.1 0.1-0.7-0.4-0.7-0.4-0.1-0.1-0.6-0.5-0.6-0.6s0.6-0.6 0.6-0.6c0.1-0.1 0.6-0.5 0.7-0.4s0.1 0.9 0.1 1 0 0.9-0.1 1z"/>
 <path class="st7" d="m89.3 68.8c0.1 0.1 0.7-0.4 0.7-0.4 0.1-0.1 0.6-0.5 0.6-0.6s-0.6-0.6-0.6-0.6c-0.1-0.1-0.6-0.5-0.7-0.4s-0.1 0.9-0.1 1 0.1 0.9 0.1 1z"/>
 <rect class="st7" x="63.9" y="71.4" width="26.1" height="2.1"/>
 <path class="st7" d="m63.9 73.5c-0.1 0.1-0.7-0.4-0.7-0.4-0.1-0.1-0.6-0.5-0.6-0.6s0.6-0.6 0.6-0.6c0.1-0.1 0.6-0.5 0.7-0.4s0.1 0.9 0.1 1 0 0.9-0.1 1z"/>
 <path class="st7" d="m89.7 73.5c0.1 0.1 0.7-0.4 0.7-0.4 0.1-0.1 0.6-0.5 0.6-0.6s-0.6-0.6-0.6-0.6c-0.1-0.1-0.6-0.5-0.7-0.4s-0.1 0.9-0.1 1 0.1 0.9 0.1 1z"/>
 <rect class="st7" x="78.3" y="76.5" width="9.9" height="2.1"/>
 <path class="st7" d="m78.4 78.6c-0.1 0.1-0.7-0.4-0.7-0.4-0.1-0.1-0.6-0.5-0.6-0.6s0.6-0.6 0.6-0.6c0.1-0.1 0.6-0.5 0.7-0.4s0.1 0.9 0.1 1-0.1 0.9-0.1 1z"/>
 <path class="st7" d="m88.3 78.6c0.1 0.1 0.7-0.4 0.7-0.4 0.1-0.1 0.6-0.5 0.6-0.6s-0.6-0.6-0.6-0.6c-0.1-0.1-0.6-0.5-0.7-0.4s-0.1 0.9-0.1 1 0 0.9 0.1 1z"/>
 <rect class="st7" x="48.7" y="80.5" width="46.2" height="2.1"/>
 <path class="st7" d="m48.7 82.6c-0.1 0.1-0.6-0.4-0.7-0.4-0.1-0.1-0.6-0.5-0.6-0.6s0.6-0.6 0.6-0.6c0.1-0.1 0.6-0.5 0.7-0.4s0.1 0.9 0.1 1 0 0.9-0.1 1z"/>
 <path class="st7" d="m94.8 82.6c0.1 0.1 0.6-0.4 0.7-0.4 0.1-0.1 0.6-0.5 0.6-0.6s-0.6-0.6-0.6-0.6c-0.1-0.1-0.6-0.5-0.7-0.4s-0.1 0.9-0.1 1 0 0.9 0.1 1z"/>
 <rect class="st2" x="34.7" y="84.9" width="9.9" height="2.1"/>
 <path class="st2" d="m34.7 86.9c-0.1 0.1-0.7-0.4-0.7-0.4-0.1-0.1-0.6-0.5-0.6-0.6s0.6-0.6 0.6-0.6c0.1-0.1 0.6-0.5 0.7-0.4s0.1 0.9 0.1 1 0 1-0.1 1z"/>
 <path class="st2" d="m44.6 86.9c0.1 0.1 0.7-0.4 0.7-0.4 0.1-0.1 0.6-0.5 0.6-0.6s-0.6-0.6-0.6-0.6c-0.1-0.1-0.6-0.5-0.7-0.4s-0.1 0.9-0.1 1 0 1 0.1 1z"/>
 <rect class="st2" x="34.7" y="90" width="9.9" height="2.1"/>
 <path class="st2" d="m34.7 92c-0.1 0.1-0.7-0.4-0.7-0.4-0.1-0.1-0.6-0.5-0.6-0.6s0.6-0.6 0.6-0.6c0.1-0.1 0.6-0.5 0.7-0.4s0.1 0.9 0.1 1 0 1-0.1 1z"/>
 <path class="st2" d="m44.6 92c0.1 0.1 0.7-0.4 0.7-0.4 0.1-0.1 0.6-0.5 0.6-0.6s-0.6-0.6-0.6-0.6c-0.1-0.1-0.6-0.5-0.7-0.4s-0.1 0.9-0.1 1 0 1 0.1 1z"/>
 <rect class="st8" x="48.6" y="84.9" width="16.3" height="2.1"/>
 <path class="st8" d="m48.7 86.9c-0.1 0.1-0.7-0.4-0.7-0.4-0.1-0.1-0.6-0.5-0.6-0.6s0.6-0.6 0.6-0.6c0.1-0.1 0.6-0.5 0.7-0.4s0.1 0.9 0.1 1 0 1-0.1 1z"/>
 <path class="st8" d="m64.9 86.9c0.1 0.1 0.7-0.4 0.7-0.4 0.1-0.1 0.6-0.5 0.6-0.6s-0.6-0.6-0.6-0.6c-0.1-0.1-0.6-0.5-0.7-0.4s-0.1 0.9-0.1 1 0 1 0.1 1z"/>
 <rect class="st8" x="48.8" y="89.8" width="16.3" height="2.1"/>
 <path class="st8" d="m48.8 91.8c-0.1 0.1-0.7-0.4-0.7-0.4-0.1-0.1-0.6-0.5-0.6-0.6s0.6-0.6 0.6-0.6c0.1-0.1 0.6-0.5 0.7-0.4s0.1 0.9 0.1 1 0 1-0.1 1z"/>
 <path class="st8" d="m65.1 91.8c0.1 0.1 0.7-0.4 0.7-0.4 0.1-0.1 0.6-0.5 0.6-0.6s-0.6-0.6-0.6-0.6c-0.1-0.1-0.6-0.5-0.7-0.4s-0.1 0.9-0.1 1 0 1 0.1 1z"/>
 <rect class="st7" x="68.8" y="84.8" width="26.1" height="2.1"/>
 <path class="st7" d="m68.9 86.8c-0.1 0.1-0.7-0.4-0.7-0.4-0.1-0.1-0.6-0.5-0.6-0.6s0.6-0.6 0.6-0.6c0.1-0.1 0.6-0.5 0.7-0.4s0.1 0.9 0.1 1c-0.1 0.1-0.1 1-0.1 1z"/>
 <path class="st7" d="m94.7 86.8c0.1 0.1 0.7-0.4 0.7-0.4 0.1-0.1 0.6-0.5 0.6-0.6s-0.6-0.6-0.6-0.6c-0.1-0.1-0.6-0.5-0.7-0.4s-0.1 0.9-0.1 1 0 1 0.1 1z"/>
 <rect class="st7" x="69.2" y="89.5" width="26.1" height="2.1"/>
 <path class="st7" d="m69.3 91.5c-0.1 0.1-0.7-0.4-0.7-0.4-0.1-0.1-0.6-0.5-0.6-0.6s0.6-0.6 0.6-0.6c0.1-0.1 0.6-0.5 0.7-0.4s0.1 0.9 0.1 1-0.1 1-0.1 1z"/>
 <path class="st7" d="m95.1 91.5c0.1 0.1 0.7-0.4 0.7-0.4 0.1-0.1 0.6-0.5 0.6-0.6s-0.6-0.6-0.6-0.6c-0.1-0.1-0.6-0.5-0.7-0.4s-0.1 0.9-0.1 1 0 1 0.1 1z"/>
 <rect class="st2" x="34.7" y="93.8" width="9.9" height="2.1"/>
 <path class="st2" d="m34.7 95.9c-0.1 0.1-0.7-0.4-0.7-0.4-0.1-0.1-0.6-0.5-0.6-0.6s0.6-0.6 0.6-0.6c0.1-0.1 0.6-0.5 0.7-0.4s0.1 0.9 0.1 1 0 0.9-0.1 1z"/>
 <path class="st2" d="m44.6 95.9c0.1 0.1 0.7-0.4 0.7-0.4 0.1-0.1 0.6-0.5 0.6-0.6s-0.6-0.6-0.6-0.6c-0.1-0.1-0.6-0.5-0.7-0.4s-0.1 0.9-0.1 1 0 0.9 0.1 1z"/>
 <rect class="st2" x="34.7" y="98.9" width="9.9" height="2.1"/>
 <path class="st2" d="m34.7 101c-0.1 0.1-0.7-0.4-0.7-0.4-0.1-0.1-0.6-0.5-0.6-0.6s0.6-0.6 0.6-0.6c0.1-0.1 0.6-0.5 0.7-0.4s0.1 0.9 0.1 1 0 0.9-0.1 1z"/>
 <path class="st2" d="m44.6 101c0.1 0.1 0.7-0.4 0.7-0.4 0.1-0.1 0.6-0.5 0.6-0.6s-0.6-0.6-0.6-0.6c-0.1-0.1-0.6-0.5-0.7-0.4s-0.1 0.9-0.1 1 0 0.9 0.1 1z"/>
 <rect class="st8" x="48.6" y="93.8" width="16.3" height="2.1"/>
 <path class="st8" d="m48.7 95.9c-0.1 0.1-0.7-0.4-0.7-0.4-0.1-0.1-0.6-0.5-0.6-0.6s0.6-0.6 0.6-0.6c0.1-0.1 0.6-0.5 0.7-0.4s0.1 0.9 0.1 1 0 0.9-0.1 1z"/>
 <path class="st8" d="m64.9 95.9c0.1 0.1 0.7-0.4 0.7-0.4 0.1-0.1 0.6-0.5 0.6-0.6s-0.6-0.6-0.6-0.6c-0.1-0.1-0.6-0.5-0.7-0.4s-0.1 0.9-0.1 1 0 0.9 0.1 1z"/>
 <rect class="st8" x="48.8" y="98.7" width="16.3" height="2.1"/>
 <path class="st8" d="m48.8 100.8c-0.1 0.1-0.7-0.4-0.7-0.4-0.1-0.1-0.6-0.5-0.6-0.6s0.6-0.6 0.6-0.6c0.1-0.1 0.6-0.5 0.7-0.4s0.1 0.9 0.1 1 0 0.9-0.1 1z"/>
 <path class="st8" d="m65.1 100.8c0.1 0.1 0.7-0.4 0.7-0.4 0.1-0.1 0.6-0.5 0.6-0.6s-0.6-0.6-0.6-0.6c-0.1-0.1-0.6-0.5-0.7-0.4s-0.1 0.9-0.1 1 0 0.9 0.1 1z"/>
 <rect class="st7" x="68.8" y="93.7" width="26.1" height="2.1"/>
 <path class="st7" d="m68.9 95.8c-0.1 0.1-0.7-0.4-0.7-0.4-0.1-0.1-0.6-0.5-0.6-0.6s0.6-0.6 0.6-0.6c0.1-0.1 0.6-0.5 0.7-0.4s0.1 0.9 0.1 1c-0.1 0.1-0.1 0.9-0.1 1z"/>
 <path class="st7" d="m94.7 95.8c0.1 0.1 0.7-0.4 0.7-0.4 0.1-0.1 0.6-0.5 0.6-0.6s-0.6-0.6-0.6-0.6c-0.1-0.1-0.6-0.5-0.7-0.4s-0.1 0.9-0.1 1 0 0.9 0.1 1z"/>
 <rect class="st7" x="69.2" y="98.4" width="26.1" height="2.1"/>
 <path class="st7" d="m69.3 100.5c-0.1 0.1-0.7-0.4-0.7-0.4-0.1-0.1-0.6-0.5-0.6-0.6s0.6-0.6 0.6-0.6c0.1-0.1 0.6-0.5 0.7-0.4s0.1 0.9 0.1 1-0.1 0.9-0.1 1z"/>
 <path class="st7" d="m95.1 100.5c0.1 0.1 0.7-0.4 0.7-0.4 0.1-0.1 0.6-0.5 0.6-0.6s-0.6-0.6-0.6-0.6c-0.1-0.1-0.6-0.5-0.7-0.4s-0.1 0.9-0.1 1 0 0.9 0.1 1z"/>
 <rect class="st2" x="29.3" y="104.7" width="9.9" height="2.1"/>
 <path class="st2" d="m29.4 106.7c-0.1 0.1-0.7-0.4-0.7-0.4-0.1-0.1-0.6-0.5-0.6-0.6s0.6-0.6 0.6-0.6c0.1-0.1 0.6-0.5 0.7-0.4s0.1 0.9 0.1 1c-0.1 0.1-0.1 1-0.1 1z"/>
 <path class="st2" d="m39.2 106.7c0.1 0.1 0.7-0.4 0.7-0.4 0.1-0.1 0.6-0.5 0.6-0.6s-0.6-0.6-0.6-0.6c-0.1-0.1-0.6-0.5-0.7-0.4s-0.1 0.9-0.1 1 0.1 1 0.1 1z"/>
 <rect class="st2" x="29.3" y="109.8" width="9.9" height="2.1"/>
 <path class="st2" d="m29.4 111.8c-0.1 0.1-0.7-0.4-0.7-0.4-0.1-0.1-0.6-0.5-0.6-0.6s0.6-0.6 0.6-0.6c0.1-0.1 0.6-0.5 0.7-0.4s0.1 0.9 0.1 1c-0.1 0.1-0.1 1-0.1 1z"/>
 <path class="st2" d="m39.2 111.8c0.1 0.1 0.7-0.4 0.7-0.4 0.1-0.1 0.6-0.5 0.6-0.6s-0.6-0.6-0.6-0.6c-0.1-0.1-0.6-0.5-0.7-0.4s-0.1 0.9-0.1 1 0.1 1 0.1 1z"/>
 <rect class="st8" x="43.3" y="104.7" width="16.3" height="2.1"/>
 <path class="st8" d="m43.3 106.7c-0.1 0.1-0.7-0.4-0.7-0.4-0.1-0.1-0.6-0.5-0.6-0.6s0.6-0.6 0.6-0.6c0.1-0.1 0.6-0.5 0.7-0.4s0.1 0.9 0.1 1 0 1-0.1 1z"/>
 <path class="st8" d="m59.6 106.7c0.1 0.1 0.7-0.4 0.7-0.4 0.1-0.1 0.6-0.5 0.6-0.6s-0.6-0.6-0.6-0.6c-0.1-0.1-0.6-0.5-0.7-0.4s-0.1 0.9-0.1 1 0 1 0.1 1z"/>
 <rect class="st8" x="43.5" y="109.6" width="16.3" height="2.1"/>
 <path class="st8" d="m43.5 111.6c-0.1 0.1-0.7-0.4-0.7-0.4-0.1-0.1-0.6-0.5-0.6-0.6s0.6-0.6 0.6-0.6c0.1-0.1 0.6-0.5 0.7-0.4s0.1 0.9 0.1 1 0 1-0.1 1z"/>
 <path class="st8" d="m59.7 111.6c0.1 0.1 0.7-0.4 0.7-0.4 0.1-0.1 0.6-0.5 0.6-0.6s-0.6-0.6-0.6-0.6c-0.1-0.1-0.6-0.5-0.7-0.4s-0.1 0.9-0.1 1 0 1 0.1 1z"/>
 <rect class="st7" x="63.5" y="104.6" width="26.1" height="2.1"/>
 <path class="st7" d="m63.5 106.6c-0.1 0.1-0.7-0.4-0.7-0.4-0.1-0.1-0.6-0.5-0.6-0.6s0.6-0.6 0.6-0.6c0.1-0.1 0.6-0.5 0.7-0.4s0.1 0.9 0.1 1 0 1-0.1 1z"/>
 <path class="st7" d="m89.3 106.6c0.1 0.1 0.7-0.4 0.7-0.4 0.1-0.1 0.6-0.5 0.6-0.6s-0.6-0.6-0.6-0.6c-0.1-0.1-0.6-0.5-0.7-0.4s-0.1 0.9-0.1 1 0.1 1 0.1 1z"/>
 <rect class="st7" x="63.9" y="109.3" width="26.1" height="2.1"/>
 <path class="st7" d="m63.9 111.3c-0.1 0.1-0.7-0.4-0.7-0.4-0.1-0.1-0.6-0.5-0.6-0.6s0.6-0.6 0.6-0.6c0.1-0.1 0.6-0.5 0.7-0.4s0.1 0.9 0.1 1 0 1-0.1 1z"/>
 <path class="st7" d="m89.7 111.3c0.1 0.1 0.7-0.4 0.7-0.4 0.1-0.1 0.6-0.5 0.6-0.6s-0.6-0.6-0.6-0.6c-0.1-0.1-0.6-0.5-0.7-0.4s-0.1 0.9-0.1 1 0.1 1 0.1 1z"/>
 <rect class="st2" x="34.2" y="114.4" width="9.9" height="2.1"/>
 <path class="st2" d="m34.3 116.4c-0.1 0.1-0.7-0.4-0.7-0.4-0.1-0.1-0.6-0.5-0.6-0.6s0.6-0.6 0.6-0.6c0.1-0.1 0.6-0.5 0.7-0.4s0.1 0.9 0.1 1c-0.1 0.1-0.1 1-0.1 1z"/>
 <path class="st2" d="m44.1 116.4c0.1 0.1 0.7-0.4 0.7-0.4 0.1-0.1 0.6-0.5 0.6-0.6s-0.6-0.6-0.6-0.6c-0.1-0.1-0.6-0.5-0.7-0.4s-0.1 0.9-0.1 1 0.1 1 0.1 1z"/>
 <rect class="st8" x="48.4" y="114.2" width="26.1" height="2.1"/>
 <path class="st8" d="m48.4 116.2c-0.1 0.1-0.7-0.4-0.7-0.4-0.1-0.1-0.6-0.5-0.6-0.6s0.6-0.6 0.6-0.6c0.1-0.1 0.6-0.5 0.7-0.4s0.1 0.9 0.1 1 0 1-0.1 1z"/>
 <path class="st8" d="m74.2 116.2c0.1 0.1 0.7-0.4 0.7-0.4 0.1-0.1 0.6-0.5 0.6-0.6s-0.6-0.6-0.6-0.6c-0.1-0.1-0.6-0.5-0.7-0.4s-0.1 0.9-0.1 1 0 1 0.1 1z"/>
 <rect class="st2" x="34.2" y="118.2" width="9.9" height="2.1"/>
 <path class="st2" d="m34.3 120.3c-0.1 0.1-0.7-0.4-0.7-0.4-0.1-0.1-0.6-0.5-0.6-0.6s0.6-0.6 0.6-0.6c0.1-0.1 0.6-0.5 0.7-0.4s0.1 0.9 0.1 1c-0.1 0.1-0.1 1-0.1 1z"/>
 <path class="st2" d="m44.1 120.3c0.1 0.1 0.7-0.4 0.7-0.4 0.1-0.1 0.6-0.5 0.6-0.6s-0.6-0.6-0.6-0.6c-0.1-0.1-0.6-0.5-0.7-0.4s-0.1 0.9-0.1 1 0.1 1 0.1 1z"/>
 <rect class="st7" x="78.3" y="114.4" width="9.9" height="2.1"/>
 <path class="st7" d="m78.4 116.4c-0.1 0.1-0.7-0.4-0.7-0.4-0.1-0.1-0.6-0.5-0.6-0.6s0.6-0.6 0.6-0.6c0.1-0.1 0.6-0.5 0.7-0.4s0.1 0.9 0.1 1-0.1 1-0.1 1z"/>
 <path class="st7" d="m88.3 116.4c0.1 0.1 0.7-0.4 0.7-0.4 0.1-0.1 0.6-0.5 0.6-0.6s-0.6-0.6-0.6-0.6c-0.1-0.1-0.6-0.5-0.7-0.4s-0.1 0.9-0.1 1 0 1 0.1 1z"/>
 <rect class="st7" x="48.7" y="118.3" width="46.2" height="2.1"/>
 <path class="st7" d="m48.7 120.4c-0.1 0.1-0.6-0.4-0.7-0.4-0.1-0.1-0.6-0.5-0.6-0.6s0.6-0.6 0.6-0.6c0.1-0.1 0.6-0.5 0.7-0.4s0.1 0.9 0.1 1 0 1-0.1 1z"/>
 <path class="st7" d="m94.8 120.4c0.1 0.1 0.6-0.4 0.7-0.4 0.1-0.1 0.6-0.5 0.6-0.6s-0.6-0.6-0.6-0.6c-0.1-0.1-0.6-0.5-0.7-0.4s-0.1 0.9-0.1 1 0 1 0.1 1z"/>
 <rect class="st2" x="34.2" y="122.7" width="9.9" height="2.1"/>
 <path class="st2" d="m34.3 124.8c-0.1 0.1-0.7-0.4-0.7-0.4-0.1-0.1-0.6-0.5-0.6-0.6s0.6-0.6 0.6-0.6c0.1-0.1 0.6-0.5 0.7-0.4s0.1 0.9 0.1 1c-0.1 0.1-0.1 0.9-0.1 1z"/>
 <path class="st2" d="m44.1 124.8c0.1 0.1 0.7-0.4 0.7-0.4 0.1-0.1 0.6-0.5 0.6-0.6s-0.6-0.6-0.6-0.6c-0.1-0.1-0.6-0.5-0.7-0.4s-0.1 0.9-0.1 1 0.1 0.9 0.1 1z"/>
 <rect class="st8" x="48.4" y="122.5" width="26.1" height="2.1"/>
 <path class="st8" d="m48.4 124.6c-0.1 0.1-0.7-0.4-0.7-0.4-0.1-0.1-0.6-0.5-0.6-0.6s0.6-0.6 0.6-0.6c0.1-0.1 0.6-0.5 0.7-0.4s0.1 0.9 0.1 1 0 0.9-0.1 1z"/>
 <path class="st8" d="m74.2 124.6c0.1 0.1 0.7-0.4 0.7-0.4 0.1-0.1 0.6-0.5 0.6-0.6s-0.6-0.6-0.6-0.6c-0.1-0.1-0.6-0.5-0.7-0.4s-0.1 0.9-0.1 1 0 0.9 0.1 1z"/>
 <rect class="st7" x="78.3" y="122.7" width="9.9" height="2.1"/>
 <path class="st7" d="m78.4 124.8c-0.1 0.1-0.7-0.4-0.7-0.4-0.1-0.1-0.6-0.5-0.6-0.6s0.6-0.6 0.6-0.6c0.1-0.1 0.6-0.5 0.7-0.4s0.1 0.9 0.1 1-0.1 0.9-0.1 1z"/>
 <path class="st7" d="m88.3 124.8c0.1 0.1 0.7-0.4 0.7-0.4 0.1-0.1 0.6-0.5 0.6-0.6s-0.6-0.6-0.6-0.6c-0.1-0.1-0.6-0.5-0.7-0.4s-0.1 0.9-0.1 1 0 0.9 0.1 1z"/>
 <rect class="st2" x="33.8" y="127" width="9.9" height="2.1"/>
 <path class="st2" d="m33.8 129.1c-0.1 0.1-0.7-0.4-0.7-0.4-0.1-0.1-0.6-0.5-0.6-0.6s0.6-0.6 0.6-0.6c0.1-0.1 0.6-0.5 0.7-0.4s0.1 0.9 0.1 1c0 0 0 0.9-0.1 1z"/>
 <path class="st2" d="m43.7 129.1c0.1 0.1 0.7-0.4 0.7-0.4 0.1-0.1 0.6-0.5 0.6-0.6s-0.6-0.6-0.6-0.6c-0.1-0.1-0.6-0.5-0.7-0.4s-0.1 0.9-0.1 1c0 0 0.1 0.9 0.1 1z"/>
 <rect class="st7" x="67.2" y="127" width="28.1" height="2.1"/>
 <path class="st7" d="m67.2 129.1c-0.1 0.1-0.7-0.4-0.7-0.4-0.1-0.1-0.6-0.5-0.6-0.6s0.6-0.6 0.6-0.6c0.1-0.1 0.6-0.5 0.7-0.4s0.1 0.9 0.1 1c0 0 0 0.9-0.1 1z"/>
 <path class="st7" d="m95.2 129.1c0.1 0.1 0.7-0.4 0.7-0.4 0.1-0.1 0.6-0.5 0.6-0.6s-0.6-0.6-0.6-0.6c-0.1-0.1-0.6-0.5-0.7-0.4s-0.1 0.9-0.1 1c0 0 0 0.9 0.1 1z"/>
 <rect class="st7" x="34" y="130.7" width="61.1" height="2.1"/>
 <path class="st7" d="m34.1 132.7c-0.1 0.1-0.9-0.4-0.9-0.4-0.1-0.1-0.8-0.5-0.8-0.6s0.7-0.6 0.8-0.6c0.1-0.1 0.8-0.5 0.9-0.4s0.1 0.9 0.1 1 0 1-0.1 1z"/>
 <path class="st7" d="m95 132.7c0.1 0.1 0.9-0.4 0.9-0.4 0.1-0.1 0.8-0.5 0.8-0.6s-0.7-0.6-0.8-0.6c-0.1-0.1-0.8-0.5-0.9-0.4s-0.1 0.9-0.1 1 0 1 0.1 1z"/>
 <rect class="st7" x="34" y="134.2" width="61.1" height="2.1"/>
 <path class="st7" d="m34.1 136.2c-0.1 0.1-0.9-0.4-0.9-0.4-0.1-0.1-0.8-0.5-0.8-0.6s0.7-0.6 0.8-0.6c0.1-0.1 0.8-0.5 0.9-0.4s0.1 0.9 0.1 1 0 1-0.1 1z"/>
 <path class="st7" d="m95 136.2c0.1 0.1 0.9-0.4 0.9-0.4 0.1-0.1 0.8-0.5 0.8-0.6s-0.7-0.6-0.8-0.6c-0.1-0.1-0.8-0.5-0.9-0.4s-0.1 0.9-0.1 1 0 1 0.1 1z"/>
 <rect class="st8" x="48.4" y="127" width="14.5" height="2.1"/>
 <path class="st8" d="m48.5 129.1c-0.1 0.1-1-0.4-1.1-0.4-0.1-0.1-0.9-0.5-0.9-0.6s0.8-0.6 0.9-0.6c0.1-0.1 0.9-0.5 1-0.4s0.1 0.9 0.1 1c0.1 0 0.1 0.9 0 1z"/>
 <path class="st8" d="m62.9 129.1c0.1 0.1 1-0.4 1.1-0.4 0.1-0.1 0.9-0.5 0.9-0.6s-0.8-0.6-0.9-0.6c-0.1-0.1-0.9-0.5-1-0.4s-0.1 0.9-0.1 1c-0.1 0-0.1 0.9 0 1z"/>
 <rect class="st2" x="53.6" y="137.6" width="9.9" height="2.1"/>
 <path class="st2" d="m63.5 139.7c0.1 0.1 0.7-0.4 0.7-0.4 0.1-0.1 0.6-0.5 0.6-0.6s-0.6-0.6-0.6-0.6c-0.1-0.1-0.6-0.5-0.7-0.4s-0.1 0.9-0.1 1 0 0.9 0.1 1z"/>
 <path class="st2" d="m53.6 139.7c-0.1 0.1-0.7-0.4-0.7-0.4-0.1-0.1-0.6-0.5-0.6-0.6s0.6-0.6 0.6-0.6c0.1-0.1 0.6-0.5 0.7-0.4s0.1 0.9 0.1 1 0 0.9-0.1 1z"/>
 <rect class="st8" x="34.4" y="137.6" width="14.5" height="2.1"/>
 <path class="st8" d="m48.9 139.7c0.1 0.1 1-0.4 1.1-0.4 0.1-0.1 0.9-0.5 0.9-0.6s-0.8-0.6-0.9-0.6c-0.1-0.1-0.9-0.5-1-0.4s-0.1 0.9-0.1 1c-0.1 0.1-0.1 0.9 0 1z"/>
 <path class="st8" d="m34.5 139.7c-0.1 0.1-1-0.4-1.1-0.4-0.1-0.1-0.9-0.5-0.9-0.6s0.8-0.6 0.9-0.6c0.1-0.1 0.9-0.5 1-0.4s0.1 0.9 0.1 1c0.1 0.1 0.1 0.9 0 1z"/>
</svg>
