<?xml version='1.0' encoding='utf-8'?>
<svg xmlns="http://www.w3.org/2000/svg" width="91.44mm" height="91.44mm" version="1.1" style="shape-rendering:geometricPrecision; text-rendering:geometricPrecision; image-rendering:optimizeQuality; fill-rule:evenodd; clip-rule:evenodd" viewBox="0 0 9144 9144"> <defs> <style type="text/css">  .fil1 {fill:#011627} .fil0 {fill:#F0F0F0}  </style> </defs> <g id="Layer_x0020_1"> <metadata id="CorelCorpID_0Corel-Layer"/> <g id="_2744503413120"> <polygon class="fil0" points="0,0 9144,0 9144,9144 0,9144 "/> <path class="fil1" d="M5624 2907c46,0 84,37 84,84 0,46 -38,84 -84,84 -46,0 -84,-38 -84,-84 0,-47 38,-84 84,-84zm-621 673c33,11 66,24 101,38 34,14 67,30 100,47 43,23 59,76 37,119l-1 2c-19,34 -31,71 -36,109 -4,28 -4,56 0,84 51,37 100,78 144,123 44,44 84,93 120,145 28,4 56,4 84,1 39,-5 76,-16 110,-35 43,-23 96,-6 119,36l1 2c17,34 32,67 46,101 14,33 26,68 37,104 15,47 -11,96 -58,110l-2 1c-37,11 -72,29 -102,51 -22,17 -43,38 -60,60 4,24 7,47 10,71 4,38 6,75 6,110 0,38 -3,77 -7,117 -3,27 -7,53 -11,79 17,22 36,42 58,59 30,24 65,42 102,53 47,14 73,64 59,110 0,3 -1,5 -2,7 -11,32 -23,65 -37,99 -15,34 -31,67 -48,100 -22,43 -75,59 -118,37l-2 -1c-34,-19 -71,-31 -109,-36 -28,-4 -57,-4 -84,0 -37,52 -78,100 -123,144 -44,44 -93,84 -145,120 -4,28 -5,56 -1,84 5,39 16,76 34,110 23,43 7,96 -36,119l-2 1c-33,17 -67,32 -100,46 -34,14 -69,26 -104,37 -47,15 -96,-11 -111,-57l0 -3c-11,-38 -29,-72 -52,-102 -17,-23 -37,-42 -59,-60 -24,4 -48,8 -72,10 -37,4 -74,6 -109,6 -39,0 -78,-2 -117,-7 -27,-3 -54,-6 -79,-11 -22,17 -43,36 -60,58 -23,30 -41,65 -53,103 -14,46 -63,73 -110,58 -2,0 -4,-1 -6,-2 -33,-11 -66,-23 -99,-37 -34,-15 -67,-30 -100,-48 -43,-22 -60,-75 -37,-118l3 -5c17,-33 29,-69 34,-106 4,-28 4,-57 0,-84 -52,-37 -100,-78 -144,-123 -44,-44 -84,-93 -120,-145 -28,-4 -57,-4 -85,-1 -38,5 -75,16 -109,34 -43,23 -96,7 -119,-36l-1 -2 0 1c-17,-34 -33,-68 -46,-101 -14,-34 -26,-69 -38,-104 -14,-47 12,-96 58,-111l2 0c38,-11 73,-29 103,-52 22,-17 42,-37 59,-59 -4,-24 -7,-48 -9,-71 -4,-38 -6,-75 -6,-110 0,-38 2,-77 6,-117 3,-27 7,-53 12,-79 -17,-22 -37,-43 -59,-60 -29,-23 -64,-41 -102,-53 -46,-14 -73,-63 -59,-109 1,-3 2,-5 3,-7 10,-33 23,-65 37,-99 14,-34 30,-67 47,-100 23,-43 76,-60 119,-37l2 1c34,19 71,31 109,36 28,4 56,4 84,0 37,-52 78,-100 123,-144 44,-44 93,-84 145,-120 4,-28 4,-57 1,-85 -5,-38 -16,-75 -35,-109 -23,-43 -6,-96 36,-119l2 -1c34,-17 67,-33 101,-46 33,-14 68,-26 104,-38 47,-14 96,12 110,58l1 2c11,38 28,73 51,103 17,22 37,42 60,59 23,-4 47,-7 71,-9 38,-4 75,-6 110,-6 38,0 77,2 117,6 27,3 53,7 78,12 23,-17 43,-37 60,-59 24,-29 42,-64 53,-102 14,-46 63,-73 110,-59l5 2zm32 200l-13 -6c-14,26 -30,51 -48,74 -36,46 -80,85 -130,116 -19,13 -44,19 -69,14 -33,-8 -65,-13 -97,-16 -31,-4 -64,-6 -98,-6 -33,0 -64,2 -93,5 -28,3 -56,7 -84,12 -23,7 -48,4 -70,-9 -51,-32 -97,-73 -133,-121 -18,-24 -34,-48 -47,-74l-28 11c9,28 15,57 19,86 7,59 3,120 -12,179 -5,21 -18,40 -38,53 -53,34 -103,74 -148,118 -45,45 -86,94 -120,146 -12,18 -31,33 -54,38 -59,14 -120,17 -180,9 -28,-4 -57,-10 -85,-19l-12 27c26,14 51,30 74,48 45,36 85,79 115,129 14,19 20,45 14,70 -7,33 -12,65 -16,97 -3,31 -5,63 -5,98 0,33 2,64 5,92 3,29 7,57 12,85 7,23 4,48 -9,70 -32,51 -73,96 -122,133 -23,18 -48,33 -74,47l12 27c28,-8 57,-15 86,-18 59,-7 120,-4 179,11l0 1c21,5 40,18 53,38 34,53 73,102 118,148 45,45 94,85 146,120 18,12 32,30 38,53 14,59 17,121 9,180 -4,29 -10,58 -20,86l14 6 14 5c14,-25 30,-50 48,-73 36,-46 79,-85 129,-115 19,-14 45,-20 70,-15 33,7 65,13 97,16 31,4 63,5 98,5 33,0 63,-1 92,-4 29,-3 57,-7 85,-13 23,-6 48,-3 70,10 51,32 96,73 133,121 18,24 33,48 47,74l27 -11c-8,-28 -15,-57 -18,-86 -7,-60 -4,-121 11,-179l1 0c5,-21 18,-40 38,-53 53,-34 102,-74 148,-119 45,-44 85,-93 120,-145 12,-19 30,-33 53,-38 59,-14 120,-18 180,-9 29,3 58,10 86,19l11 -27c-25,-14 -50,-30 -73,-48 -46,-36 -85,-80 -116,-130 -13,-19 -19,-44 -14,-69 7,-33 13,-65 16,-97 4,-31 5,-64 5,-98 0,-33 -1,-64 -4,-93 -3,-28 -7,-56 -13,-84 -6,-23 -3,-48 10,-70 32,-51 73,-97 121,-133 23,-18 48,-34 74,-47l-11 -28c-28,9 -57,15 -86,19 -60,7 -121,3 -179,-12 -21,-5 -40,-18 -53,-38 -34,-53 -74,-103 -119,-148 -44,-45 -93,-85 -145,-120 -19,-12 -33,-31 -38,-54 -15,-59 -18,-120 -9,-179 3,-29 10,-58 19,-86l-14 -6zm-443 564c139,3 264,61 355,153 92,94 149,223 148,365 -1,143 -60,271 -154,364 -93,92 -222,149 -364,148 -143,-1 -271,-60 -364,-154 -92,-93 -149,-222 -148,-364l0 -9c3,-139 61,-264 153,-355 94,-92 223,-149 365,-148l9 0zm229 277c-59,-61 -141,-99 -232,-101l-7 0c-93,-1 -179,37 -240,98 -61,59 -99,141 -101,232l0 6c-1,94 36,179 97,241 61,62 146,100 239,101 94,1 179,-37 241,-98 62,-61 100,-145 101,-239 1,-93 -37,-178 -98,-240zm-2021 -1439l3544 0 0 -382 -3544 0 0 382zm3544 176l-3544 0 0 2986 3544 0 0 -2986zm-3632 -735l3720 0c49,0 89,40 89,89l0 3720c0,49 -40,89 -89,89l-3720 0c-49,0 -89,-40 -89,-89l0 -3720c0,-49 40,-89 89,-89zm3420 284c46,0 84,37 84,84 0,46 -38,84 -84,84 -46,0 -84,-38 -84,-84 0,-47 38,-84 84,-84zm-254 0c46,0 84,37 84,84 0,46 -38,84 -84,84 -46,0 -84,-38 -84,-84 0,-47 38,-84 84,-84z"/> </g> </g> </svg>