<?xml version="1.0" encoding="UTF-8"?>
<svg width="650" height="500" version="1.1" viewBox="0 0 650.00001 500.00001" xmlns="http://www.w3.org/2000/svg">
 <defs>
  <filter id="a" x="-.068536" y="-.10456" width="1.1371" height="1.2091" color-interpolation-filters="sRGB">
   <feGaussianBlur stdDeviation="13.463792"/>
  </filter>
 </defs>
 <g transform="translate(0 -552.36)">
  <rect y="552.36" width="650" height="500" fill="#6dd4c7"/>
 </g>
 <rect x="89.262" y="110.62" width="471.48" height="309.03" ry="0" fill-opacity=".090426" filter="url(#a)"/>
 <rect x="89.262" y="95.484" width="471.48" height="309.03" ry="0" fill="#fff"/>
 <rect x="89.262" y="95.484" width="471.48" height="16.293" fill="#ededed"/>
 <circle cx="97.408" cy="103.63" r="2.812" fill="#62d5e9"/>
 <circle cx="114.28" cy="103.63" r="2.812" fill="#ff8d72"/>
 <circle cx="105.84" cy="103.63" r="2.812" fill="#58f9a2"/>
 <path d="m411.18 147.93c1.0658 0 2.1316 0.40505 2.9416 1.2151 1.5594 1.5593 1.6171 4.0658 0.17489 5.6963l0.41537 0.41549 0.10476-0.10476c0.0844-0.0844 0.22024-0.0844 0.30461 0l4.1698 4.1698c0.0844 0.0844 0.0844 0.22036 0 0.30475l-0.57113 0.57112c-0.0844 0.0844-0.22037 0.0844-0.30475 0l-4.1698-4.1698c-0.0844-0.0844-0.0844-0.22024 0-0.30462l0.10476-0.10476-0.4155-0.41549c-1.6304 1.4424-4.1369 1.3846-5.6963-0.17476-1.6201-1.6201-1.6201-4.2631 0-5.8833 0.81009-0.81008 1.8758-1.2151 2.9416-1.2151zm0 1.0703c-0.7879 0-1.5759 0.30218-2.1802 0.90643-1.2086 1.2086-1.2086 3.1516 0 4.3601 1.2086 1.2086 3.1516 1.2086 4.3601 0 1.2086-1.2086 1.2086-3.1516 0-4.3601-0.60426-0.60428-1.3921-0.90643-2.18-0.90643z" color="#000000" color-rendering="auto" fill="#58f9a2" image-rendering="auto" shape-rendering="auto" solid-color="#000000" style="block-progression:tb;isolation:auto;mix-blend-mode:normal;text-decoration-color:#000000;text-decoration-line:none;text-decoration-style:solid;text-indent:0;text-transform:none;white-space:normal"/>
 <rect x="231.42" y="148.08" width="170.79" height="12.188" ry="0" fill="#fff" stroke="#62d5e9" stroke-linecap="round" stroke-width="1.544"/>
 <rect x="230.65" y="182.49" width="188.7" height="36.482" fill="#ededed"/>
 <path d="m240.46 188.7v5h101.98v-5h-101.98z" color="#000000" color-rendering="auto" fill="#62d5e9" fill-rule="evenodd" image-rendering="auto" shape-rendering="auto" solid-color="#000000" style="block-progression:tb;isolation:auto;mix-blend-mode:normal;text-decoration-color:#000000;text-decoration-line:none;text-decoration-style:solid;text-indent:0;text-transform:none;white-space:normal"/>
 <path d="m240.46 200.93v3.8357h114.01v-3.8357h-114.01z" color="#000000" color-rendering="auto" fill="#58f9a2" fill-rule="evenodd" image-rendering="auto" shape-rendering="auto" solid-color="#000000" style="block-progression:tb;isolation:auto;mix-blend-mode:normal;text-decoration-color:#000000;text-decoration-line:none;text-decoration-style:solid;text-indent:0;text-transform:none;white-space:normal"/>
 <path d="m240.46 208.93v3.8357h36.258v-3.8357h-36.258z" color="#000000" color-rendering="auto" fill="#ff8d72" fill-rule="evenodd" image-rendering="auto" shape-rendering="auto" solid-color="#000000" style="block-progression:tb;isolation:auto;mix-blend-mode:normal;text-decoration-color:#000000;text-decoration-line:none;text-decoration-style:solid;text-indent:0;text-transform:none;white-space:normal"/>
 <rect x="230.65" y="232.97" width="188.7" height="36.482" fill="#ededed"/>
 <path d="m239.57 239.18v5h104.82v-5h-104.82z" color="#000000" color-rendering="auto" fill="#62d5e9" fill-rule="evenodd" image-rendering="auto" shape-rendering="auto" solid-color="#000000" style="block-progression:tb;isolation:auto;mix-blend-mode:normal;text-decoration-color:#000000;text-decoration-line:none;text-decoration-style:solid;text-indent:0;text-transform:none;white-space:normal"/>
 <path d="m239.57 251.42v3.8357h71.83v-3.8357h-71.83z" color="#000000" color-rendering="auto" fill="#58f9a2" fill-rule="evenodd" image-rendering="auto" shape-rendering="auto" solid-color="#000000" style="block-progression:tb;isolation:auto;mix-blend-mode:normal;text-decoration-color:#000000;text-decoration-line:none;text-decoration-style:solid;text-indent:0;text-transform:none;white-space:normal"/>
 <path d="m239.57 259.42v3.8357h77.458v-3.8357h-77.458z" color="#000000" color-rendering="auto" fill="#ff8d72" fill-rule="evenodd" image-rendering="auto" shape-rendering="auto" solid-color="#000000" style="block-progression:tb;isolation:auto;mix-blend-mode:normal;text-decoration-color:#000000;text-decoration-line:none;text-decoration-style:solid;text-indent:0;text-transform:none;white-space:normal"/>
 <rect x="230.65" y="283.46" width="188.7" height="36.482" fill="#ededed"/>
 <path d="m239.57 289.66v5h39.619v-5h-39.619z" color="#000000" color-rendering="auto" fill="#62d5e9" fill-rule="evenodd" image-rendering="auto" shape-rendering="auto" solid-color="#000000" style="block-progression:tb;isolation:auto;mix-blend-mode:normal;text-decoration-color:#000000;text-decoration-line:none;text-decoration-style:solid;text-indent:0;text-transform:none;white-space:normal"/>
 <path d="m239.57 301.9v3.8357h114.13v-3.8357h-114.13z" color="#000000" color-rendering="auto" fill="#58f9a2" fill-rule="evenodd" image-rendering="auto" shape-rendering="auto" solid-color="#000000" style="block-progression:tb;isolation:auto;mix-blend-mode:normal;text-decoration-color:#000000;text-decoration-line:none;text-decoration-style:solid;text-indent:0;text-transform:none;white-space:normal"/>
 <path d="m239.57 309.9v3.8357h93.37v-3.8357h-93.37z" color="#000000" color-rendering="auto" fill="#ff8d72" fill-rule="evenodd" image-rendering="auto" shape-rendering="auto" solid-color="#000000" style="block-progression:tb;isolation:auto;mix-blend-mode:normal;text-decoration-color:#000000;text-decoration-line:none;text-decoration-style:solid;text-indent:0;text-transform:none;white-space:normal"/>
 <rect x="230.65" y="333.94" width="188.7" height="36.482" fill="#ededed"/>
 <path d="m239.57 340.15v5h60.964v-5h-60.964z" color="#000000" color-rendering="auto" fill="#62d5e9" fill-rule="evenodd" image-rendering="auto" shape-rendering="auto" solid-color="#000000" style="block-progression:tb;isolation:auto;mix-blend-mode:normal;text-decoration-color:#000000;text-decoration-line:none;text-decoration-style:solid;text-indent:0;text-transform:none;white-space:normal"/>
 <path d="m239.57 352.38v3.8357h84.638v-3.8357h-84.638z" color="#000000" color-rendering="auto" fill="#58f9a2" fill-rule="evenodd" image-rendering="auto" shape-rendering="auto" solid-color="#000000" style="block-progression:tb;isolation:auto;mix-blend-mode:normal;text-decoration-color:#000000;text-decoration-line:none;text-decoration-style:solid;text-indent:0;text-transform:none;white-space:normal"/>
 <path d="m239.57 360.38v3.8357h96.086v-3.8357h-96.086z" color="#000000" color-rendering="auto" fill="#ff8d72" fill-rule="evenodd" image-rendering="auto" shape-rendering="auto" solid-color="#000000" style="block-progression:tb;isolation:auto;mix-blend-mode:normal;text-decoration-color:#000000;text-decoration-line:none;text-decoration-style:solid;text-indent:0;text-transform:none;white-space:normal"/>
</svg>
