<?xml version="1.0" encoding="UTF-8" standalone="no"?>
<svg
   xmlns:dc="http://purl.org/dc/elements/1.1/"
   xmlns:cc="http://creativecommons.org/ns#"
   xmlns:rdf="http://www.w3.org/1999/02/22-rdf-syntax-ns#"
   xmlns:svg="http://www.w3.org/2000/svg"
   xmlns="http://www.w3.org/2000/svg"
   viewBox="0 0 693.33331 693.33331"
   height="693.33331"
   width="693.33331"
   xml:space="preserve"
   id="svg2"
   version="1.1"><metadata
     id="metadata8"><rdf:RDF><cc:Work
         rdf:about=""><dc:format>image/svg+xml</dc:format><dc:type
           rdf:resource="http://purl.org/dc/dcmitype/StillImage" /></cc:Work></rdf:RDF></metadata><defs
     id="defs6"><clipPath
       id="clipPath18"
       clipPathUnits="userSpaceOnUse"><path
         id="path16"
         d="M 0,0 H 520 V 520 H 0 Z" /></clipPath><linearGradient
       id="linearGradient30"
       spreadMethod="pad"
       gradientTransform="matrix(355.1666,615.16656,615.16656,-355.1666,82.416695,-47.583301)"
       gradientUnits="userSpaceOnUse"
       y2="0"
       x2="1"
       y1="0"
       x1="0"><stop
         id="stop24"
         offset="0"
         style="stop-opacity:1;stop-color:#efbe59" /><stop
         id="stop26"
         offset="0.5"
         style="stop-opacity:1;stop-color:#ef5440" /><stop
         id="stop28"
         offset="1"
         style="stop-opacity:1;stop-color:#c84476" /></linearGradient><clipPath
       id="clipPath40"
       clipPathUnits="userSpaceOnUse"><path
         id="path38"
         d="M 0,520 H 520 V 0 H 0 Z" /></clipPath></defs><g
     transform="matrix(1.3333333,0,0,-1.3333333,0,693.33333)"
     id="g10"><g
       id="g12"><g
         clip-path="url(#clipPath18)"
         id="g14"><g
           id="g20"><g
             id="g22"><path
               id="path32"
               style="fill:url(#linearGradient30);stroke:none"
               d="M 0,0 H 520 V 520 H 0 Z" /></g></g></g></g><g
       id="g34"><g
         clip-path="url(#clipPath40)"
         id="g36"><g
           transform="translate(198.1428,334.2286)"
           id="g42"><path
             id="path44"
             style="fill:#ffffff;fill-opacity:1;fill-rule:nonzero;stroke:none"
             d="m 0,0 h 161.78 c 4.205,0 7.613,3.409 7.613,7.613 0,4.205 -3.408,7.613 -7.613,7.613 H 0 c -4.204,0 -7.613,-3.408 -7.613,-7.613 C -7.613,3.409 -4.204,0 0,0" /></g><g
           transform="translate(174.6676,349.455)"
           id="g46"><path
             id="path48"
             style="fill:#ffffff;fill-opacity:1;fill-rule:nonzero;stroke:none"
             d="m 0,0 h -14.591 c -4.204,0 -7.613,-3.409 -7.613,-7.613 0,-4.205 3.409,-7.613 7.613,-7.613 H 0 c 4.204,0 7.613,3.408 7.613,7.613 C 7.613,-3.409 4.204,0 0,0" /></g><g
           transform="translate(359.9231,294.8932)"
           id="g50"><path
             id="path52"
             style="fill:#ffffff;fill-opacity:1;fill-rule:nonzero;stroke:none"
             d="m 0,0 h -161.78 c -4.205,0 -7.613,-3.409 -7.613,-7.613 0,-4.205 3.408,-7.613 7.613,-7.613 H 0 c 4.204,0 7.613,3.408 7.613,7.613 C 7.613,-3.409 4.204,0 0,0" /></g><g
           transform="translate(174.6676,294.8932)"
           id="g54"><path
             id="path56"
             style="fill:#ffffff;fill-opacity:1;fill-rule:nonzero;stroke:none"
             d="m 0,0 h -14.591 c -4.204,0 -7.613,-3.409 -7.613,-7.613 0,-4.205 3.409,-7.613 7.613,-7.613 H 0 c 4.204,0 7.613,3.408 7.613,7.613 C 7.613,-3.409 4.204,0 0,0" /></g><g
           transform="translate(359.9231,240.3313)"
           id="g58"><path
             id="path60"
             style="fill:#ffffff;fill-opacity:1;fill-rule:nonzero;stroke:none"
             d="m 0,0 h -161.78 c -4.205,0 -7.613,-3.409 -7.613,-7.613 0,-4.205 3.408,-7.613 7.613,-7.613 H 0 c 4.204,0 7.613,3.408 7.613,7.613 C 7.613,-3.409 4.204,0 0,0" /></g><g
           transform="translate(174.6676,240.3313)"
           id="g62"><path
             id="path64"
             style="fill:#ffffff;fill-opacity:1;fill-rule:nonzero;stroke:none"
             d="m 0,0 h -14.591 c -4.204,0 -7.613,-3.409 -7.613,-7.613 0,-4.205 3.409,-7.613 7.613,-7.613 H 0 c 4.204,0 7.613,3.408 7.613,7.613 C 7.613,-3.409 4.204,0 0,0" /></g><g
           transform="translate(359.9231,185.7714)"
           id="g66"><path
             id="path68"
             style="fill:#ffffff;fill-opacity:1;fill-rule:nonzero;stroke:none"
             d="m 0,0 h -161.78 c -4.205,0 -7.613,-3.409 -7.613,-7.613 0,-4.205 3.408,-7.613 7.613,-7.613 H 0 c 4.204,0 7.613,3.408 7.613,7.613 C 7.613,-3.409 4.204,0 0,0" /></g><g
           transform="translate(174.6676,185.7714)"
           id="g70"><path
             id="path72"
             style="fill:#ffffff;fill-opacity:1;fill-rule:nonzero;stroke:none"
             d="m 0,0 h -14.591 c -4.204,0 -7.613,-3.409 -7.613,-7.613 0,-4.205 3.409,-7.613 7.613,-7.613 H 0 c 4.204,0 7.613,3.408 7.613,7.613 C 7.613,-3.409 4.204,0 0,0" /></g></g></g></g></svg>