<?xml version="1.0" encoding="UTF-8"?>
<svg width="500mm" height="500mm" version="1.1" viewBox="0 0 1771.6535 1771.6535" xmlns="http://www.w3.org/2000/svg">
 <g transform="translate(0 719.29)">
  <rect y="-719.29" width="1771.7" height="1771.7" fill="#2bb2dc"/>
 </g>
 <g transform="translate(-1850.6 44.986)">
  <rect x="1989.6" y="272.94" width="1493.7" height="341.11" ry="17.436" fill="#dfdfdf"/>
  <rect x="1989.6" y="365.47" width="1493.7" height="1043.3" ry="0" fill="#dfdfdf"/>
  <path d="m2352.8 320.63h295.2c3.2708 0 5.3917 1.6523 5.904 3.9757l10.836 49.141c1.0782 4.8896-2.819 9.2768-6.3207 9.2768h-316.04c-3.5017 0-7.3989-4.3871-6.3207-9.2768l10.836-49.141c0.5123-2.3234 2.6332-3.9757 5.9039-3.9757z" fill="#ccc"/>
  <path d="m2036.7 320.63h295.2c3.2708 0 5.3916 1.6523 5.9039 3.9757l10.836 49.141c1.0782 4.8896-2.819 9.2768-6.3206 9.2768h-316.04c-3.5017 0-7.3989-4.3871-6.3207-9.2768l10.836-49.141c0.5123-2.3234 2.6332-3.9757 5.904-3.9757z" fill="#b8b8b8"/>
  <path d="m2670.6 320.63h295.2c3.2707 0 5.3916 1.6523 5.9039 3.9757l10.836 49.141c1.0781 4.8896-2.8191 9.2768-6.3208 9.2768h-316.04c-3.5017 0-7.3989-4.3871-6.3207-9.2768l10.836-49.141c0.5123-2.3234 2.6332-3.9757 5.9039-3.9757z" fill="#ccc"/>
  <path d="m2670.6 320.63h295.2c3.2707 0 5.3916 1.6523 5.9039 3.9757l10.836 49.141c1.0781 4.8897-2.8191 9.2768-6.3208 9.2768h-316.04c-3.5017 0-7.3989-4.3871-6.3207-9.2768l10.836-49.141c0.5123-2.3234 2.6332-3.9757 5.9039-3.9757z" fill-opacity="0"/>
  <rect x="1993.7" y="373.69" width="1485.5" height="1031.1" ry="0" fill="#fff"/>
  <circle cx="3457.9" cy="297.66" r="9.1461" fill="#f99"/>
  <circle cx="3428.4" cy="297.66" r="9.1461" fill="#c6a8f0"/>
  <circle cx="3398.9" cy="297.66" r="9.1461" fill="#ccc"/>
  <circle cx="2309.6" cy="347.68" r="14.278" fill="#ccc"/>
  <path d="m2303.9 340.61a1.3715 1.3715 0 0 0 -0.9534 2.3554l11.366 11.368a1.3716 1.3716 0 0 0 1.9397 -1.9397l-11.368-11.368a1.3715 1.3715 0 0 0 -0.984 -0.41565z" color="#000000" color-rendering="auto" fill="#b8b8b8" fill-rule="evenodd" image-rendering="auto" shape-rendering="auto" solid-color="#000000" style="block-progression:tb;isolation:auto;mix-blend-mode:normal;text-decoration-color:#000000;text-decoration-line:none;text-decoration-style:solid;text-indent:0;text-transform:none;white-space:normal"/>
  <path d="m2315.5 340.51a1.3715 1.3715 0 0 0 -0.9464 0.4086l-11.72 11.561a1.3725 1.3725 0 1 0 1.928 1.9538l11.718-11.563a1.3715 1.3715 0 0 0 -0.9792 -2.36z" color="#000000" color-rendering="auto" fill="#b8b8b8" fill-rule="evenodd" image-rendering="auto" shape-rendering="auto" solid-color="#000000" style="block-progression:tb;isolation:auto;mix-blend-mode:normal;text-decoration-color:#000000;text-decoration-line:none;text-decoration-style:solid;text-indent:0;text-transform:none;white-space:normal"/>
  <rect x="2134" y="404.19" width="1204.9" height="1000.6" fill="#f5f5f5"/>
  <rect x="2167.4" y="531.91" width="418.72" height="340.1" fill="#afafaf"/>
  <rect x="2619.5" y="556.98" width="686.06" height="25.073" fill="#afafaf"/>
  <rect x="2619.5" y="604.51" width="686.06" height="25.073" fill="#afafaf"/>
  <rect x="2619.5" y="654.66" width="686.06" height="25.073" fill="#afafaf"/>
  <rect x="2619.5" y="704.8" width="686.06" height="25.073" fill="#afafaf"/>
  <rect x="2619.5" y="754.95" width="686.06" height="25.073" fill="#afafaf"/>
  <rect x="2619.5" y="805.09" width="686.06" height="25.073" fill="#afafaf"/>
  <rect x="2619.5" y="855.24" width="686.06" height="25.073" fill="#afafaf"/>
  <rect x="2167.4" y="905.38" width="1138.2" height="25.073" fill="#afafaf"/>
  <rect x="2167.4" y="955.53" width="1138.2" height="25.073" fill="#afafaf"/>
  <rect x="2167.4" y="1003.1" width="1138.2" height="25.073" fill="#afafaf"/>
  <rect x="2167.4" y="1053.2" width="1138.2" height="25.073" fill="#afafaf"/>
  <rect x="2167.4" y="1103.4" width="1138.2" height="25.073" fill="#afafaf"/>
  <rect x="2167.4" y="1153.5" width="1138.2" height="25.073" fill="#afafaf"/>
  <rect x="2167.4" y="1203.6" width="1138.2" height="25.073" fill="#afafaf"/>
  <rect x="2167.4" y="1253.8" width="1138.2" height="25.073" fill="#afafaf"/>
  <rect x="2167.4" y="1303.9" width="1138.2" height="25.073" fill="#afafaf"/>
  <rect x="2167.4" y="1351.5" width="1138.2" height="25.073" fill="#afafaf"/>
  <path d="m2167.4 1401.6v3.1406h1138.2v-3.1406h-1138.2z" fill="#afafaf"/>
  <path d="m3305.5 1339.3v-300.8h-386.16l-173.37 300.28z" fill="#afafaf" fill-rule="evenodd" stroke="#f5f5f5" stroke-width="21"/>
 </g>
</svg>
